# xmcd
#
# Track frame offsets:
#	150
#	12482
#	35564
#	49081
#	61344
#	82990
#	99932
#	112350
#	125842
#	142219
#	170643
#	186223
#	209499
#	239593
#	253190
#	266860
#	280567
#	300381
#	315845
#	330479
#
# Disc length: 4691
#
# Revision: 1
# Processed by: cddbd v1.5.1PL0 Copyright (c) Steve Scherf et al.
# Submitted via: dBpowerAMP V4.0
# Normalized: r0:TDELIM( - )
#
DISCID=2c125114
DTITLE=Cassio 04 - The Ghetto
DYEAR=1900
DGENRE=Blues
TTITLE0=Elvis Presley - The Ghetto
TTITLE1=Diana Krall - Garden in the Rain
TTITLE2=John Denver - Perhaps Love
TTITLE3=Joe Cocker - You Are So Beautiful
TTITLE4=Diana Krall - Days of Wine and Roses
TTITLE5=Steave Wonder - Light My Fire
TTITLE6=Nana Mouskouri - Une Chanson Douce
TTITLE7=Earl Grant - Love Letters Straight from Yous Heart
TTITLE8=Johnny Mathis - My Funny Valentine
TTITLE9=Ray Charles - Summertime
TTITLE10=Tony Bennett - The Way You Look Tonight
TTITLE11=Louis Armstrong and Ella - Tenderly
TTITLE12=Diana Krall - Besame Mucho
TTITLE13=Nat King Cole - An Affair to Remember
TTITLE14=Ray Charles - Eleanor Rigby
TTITLE15=John Denver - Annie´s Song
TTITLE16=Steave Wonder - I Just Called to Say I Love You
TTITLE17=Nana Mouskouri - Love Me Tender
TTITLE18=Nat King Cole - Stardust
TTITLE19=Diana Krall - How Deep Is the Ocean
EXTD=
EXTT0=
EXTT1=
EXTT2=
EXTT3=
EXTT4=
EXTT5=
EXTT6=
EXTT7=
EXTT8=
EXTT9=
EXTT10=
EXTT11=
EXTT12=
EXTT13=
EXTT14=
EXTT15=
EXTT16=
EXTT17=
EXTT18=
EXTT19=
PLAYORDER=
